Title:
Smashed

Country:
USA/2012

Language:
English

Subtitle:
English

Director:
James Ponsoldt

Writers:
Susan Burke, James Ponsoldt

Stars:
Mary Elizabeth Winstead, Aaron Paul, Octavia Spencer 

Synopsis:
Kate and Charlie Hannah have a relationship well lubricated with alcohol, but Kate finally finds her chemical appetites have gotten completely out of control. With the help of an ex-addict friend at work, Kate finds a support group that helps her begin to conquer her addictions. However, that recovery proves just part of a larger personal challenge to rebuild her life even as her marriage with her drunken husband deteriorates. 

Trivia:
Won Special Jury Prize from Sundance Film Festival 2012

Imdb: 
http://www.imdb.com/title/tt2063781

Trailer: 
http://www.cine.gr/film.asp?id=717132


Media Info:

General
Complete name                            : Smashed.2012.BRRip.XviD.AC3.HORiZON-ArtSubs
Format                                   : AVI
Format/Info                              : Audio Video Interleave
File size                                : 1.36 GiB
Duration                                 : 1h 21mn
Overall bit rate                         : 2 409 Kbps
Writing application                      : FairUse Wizard - http://fairusewizard.com
Writing library                          : The best and REALLY easy backup tool

Video
ID                                       : 0
Format                                   : MPEG-4 Visual
Format profile                           : Advanced Simple@L5
Format settings, BVOP                    : 1
Format settings, QPel                    : No
Format settings, GMC                     : No warppoints
Format settings, Matrix                  : Default (MPEG)
Muxing mode                              : Packed bitstream
Codec ID                                 : XVID
Codec ID/Hint                            : XviD
Duration                                 : 1h 21mn
Bit rate                                 : 1 952 Kbps
Width                                    : 688 pixels
Height                                   : 368 pixels
Display aspect ratio                     : 1.85:1
Frame rate                               : 23.976 fps
Color space                              : YUV
Chroma subsampling                       : 4:2:0
Bit depth                                : 8 bits
Scan type                                : Progressive
Compression mode                         : Lossy
Bits/(Pixel*Frame)                       : 0.321
Stream size                              : 1.11 GiB (81%)
Writing library                          : XviD 1.2.0.dev47 (UTC 2006-11-01)

Audio
ID                                       : 1
Format                                   : AC-3
Format/Info                              : Audio Coding 3
Mode extension                           : CM (complete main)
Format settings, Endianness              : Big
Codec ID                                 : 2000
Duration                                 : 1h 21mn
Bit rate mode                            : Constant
Bit rate                                 : 448 Kbps
Channel(s)                               : 6 channels
Channel positions                        : Front: L C R, Side: L R, LFE
Sampling rate                            : 48.0 KHz
Bit depth                                : 16 bits
Compression mode                         : Lossy
Stream size                              : 260 MiB (19%)
Alignment                                : Split accross interleaves
Interleave, duration                     : 42 ms (1.00 video frame)
Interleave, preload duration             : 500 ms

